<?xml version="1.0" encoding="utf-8"?>
<!-- Generator: Adobe Illustrator 18.0.0, SVG Export Plug-In . SVG Version: 6.00 Build 0)  -->
<!DOCTYPE svg PUBLIC "-//W3C//DTD SVG 1.1//EN" "http://www.w3.org/Graphics/SVG/1.1/DTD/svg11.dtd">
<svg version="1.1" id="Layer_1" xmlns="http://www.w3.org/2000/svg" xmlns:xlink="http://www.w3.org/1999/xlink" x="0px" y="0px"
	 viewBox="0 0 960 560" enable-background="new 0 0 960 560" xml:space="preserve">
<path fill="#558B00" d="M620.4,294.1H580c-5.5,0-10-4.5-10-10s4.5-10,10-10h40.4c6.9,0,12.6-5.6,12.6-12.6s-5.6-12.6-12.6-12.6H580
	c-5.5,0-10-4.5-10-10s4.5-10,10-10h40.4c18,0,32.6,14.6,32.6,32.6S638.4,294.1,620.4,294.1z"/>
<g>
	<path fill="#BD081C" d="M205,250h-91c-5.5,0-10-4.5-10-10v0c0-5.5,4.5-10,10-10h91c5.5,0,10,4.5,10,10v0
		C215,245.5,210.5,250,205,250z"/>
</g>
<g>
	<path fill="#00A2B7" d="M489,311h-53c-5.5,0-10-4.5-10-10l0,0c0-5.5,4.5-10,10-10h53c5.5,0,10,4.5,10,10l0,0
		C499,306.5,494.5,311,489,311z"/>
</g>
<g>
	<path fill="#00A5BC" d="M276,240v81.4c0,5.5-4.5,10-10,10h0c-5.5,0-10-4.5-10-10V240c0-5.5,4.5-10,10-10h0
		C271.5,230,276,234.5,276,240z"/>
</g>
<g>
	<path fill="#00A3B8" d="M417.8,317.2l35.5-81.8c2.2-5.1,8.1-7.4,13.2-5.2h0c5.1,2.2,7.4,8.1,5.2,13.2l-35.5,81.8
		c-2.2,5.1-8.1,7.4-13.2,5.2h0C418,328.1,415.6,322.3,417.8,317.2z"/>
</g>
<g>
	<path fill="#205C66" d="M507.2,317.2l-35.5-81.8c-2.2-5.1-8.1-7.4-13.2-5.2l0,0c-5.1,2.2-7.4,8.1-5.2,13.2l35.5,81.8
		c2.2,5.1,8.1,7.4,13.2,5.2l0,0C507,328.1,509.4,322.3,507.2,317.2z"/>
</g>
<g>
	<path fill="#003A4A" d="M215,241.4v80c0,5.5-4.5,10-10,10h0c-5.5,0-10-4.5-10-10v-80c0-5.5,4.5-10,10-10h0
		C210.5,231.4,215,235.9,215,241.4z"/>
</g>
<path fill="#F4533A" d="M788,331c-14.7,0-31.4-7.8-33.3-8.7c-5-2.4-7.1-8.4-4.7-13.3c2.4-5,8.4-7.1,13.3-4.7c4,1.9,16,6.7,24.6,6.7
	c13.9,0,17-4,17-9.4c0-5.5-4.2-7.8-21.3-11.8c-7.3-1.7-14.9-3.5-21.1-6.9c-11.2-6.1-13.5-15.3-13.5-21.8c0-17.4,15.4-31.1,35.1-31.1
	c16.3,0,29.3,8.5,30.7,9.4c4.6,3.1,5.8,9.3,2.7,13.9c-3.1,4.6-9.3,5.8-13.9,2.7c0,0-9.2-6-19.5-6c-7.3,0-15.1,3.2-15.1,10.1
	c0,3.4,2.7,6.4,19.2,10.3c14.6,3.4,36.8,8.6,36.8,31.3C825,312.5,820.2,331,788,331z"/>
<path fill="#00781A" d="M551,330c-21.5,0-39-17.5-39-39v-52c0-5.5,4.5-10,10-10s10,4.5,10,10v52c0,10.5,8.5,19,19,19s19-8.5,19-19
	v-52c0-5.5,4.5-10,10-10s10,4.5,10,10v52C590,312.5,572.5,330,551,330z"/>
<path fill="#FCA300" d="M701,330c-21.5,0-39-17.5-39-39v-52c0-5.5,4.5-10,10-10s10,4.5,10,10v52c0,10.5,8.5,19,19,19s19-8.5,19-19
	v-52c0-5.5,4.5-10,10-10s10,4.5,10,10v52C740,312.5,722.5,330,701,330z"/>
<path fill="#FCCA14" d="M638,332c-3.5,0-6.9-1.9-8.8-5.1l-21-37.8c-2.7-4.8-0.9-10.9,3.9-13.6c4.8-2.7,10.9-0.9,13.6,3.9l21,37.8
	c2.7,4.8,0.9,10.9-3.9,13.6C641.3,331.6,639.7,332,638,332z"/>
<g>
	<path fill="#7287FF" d="M299,291h-94c-5.5,0-10-4.5-10-10l0,0c0-5.5,4.5-10,10-10h94c5.5,0,10,4.5,10,10l0,0
		C309,286.5,304.5,291,299,291z"/>
</g>
<g>
	<path fill="#8D57FF" d="M321,331.4h-55c-5.5,0-10-4.5-10-10v0c0-5.5,4.5-10,10-10h55c5.5,0,10,4.5,10,10v0
		C331,326.9,326.5,331.4,321,331.4z"/>
</g>
<g>
	<path fill="#72BEFF" d="M321,250h-55c-5.5,0-10-4.5-10-10v0c0-5.5,4.5-10,10-10h55c5.5,0,10,4.5,10,10v0
		C331,245.5,326.5,250,321,250z"/>
</g>
<g>
	<path fill="#7287FF" d="M360,169h-94c-5.5,0-10-4.5-10-10v0c0-5.5,4.5-10,10-10h94c5.5,0,10,4.5,10,10v0
		C370,164.5,365.5,169,360,169z"/>
</g>
<g>
	<path fill="#8D57FF" d="M321,208h-55c-5.5,0-10-4.5-10-10v0c0-5.5,4.5-10,10-10h55c5.5,0,10,4.5,10,10v0
		C331,203.5,326.5,208,321,208z"/>
</g>
<g>
	<path fill="#72BEFF" d="M321,128h-55c-5.5,0-10-4.5-10-10v0c0-5.5,4.5-10,10-10h55c5.5,0,10,4.5,10,10v0
		C331,123.5,326.5,128,321,128z"/>
</g>
<g>
	<path fill="#7287FF" d="M360,414h-94c-5.5,0-10-4.5-10-10l0,0c0-5.5,4.5-10,10-10h94c5.5,0,10,4.5,10,10l0,0
		C370,409.5,365.5,414,360,414z"/>
</g>
<g>
	<path fill="#8D57FF" d="M321,453h-55c-5.5,0-10-4.5-10-10l0,0c0-5.5,4.5-10,10-10h55c5.5,0,10,4.5,10,10l0,0
		C331,448.5,326.5,453,321,453z"/>
</g>
<g>
	<path fill="#00A3B8" d="M321,373h-55c-5.5,0-10-4.5-10-10l0,0c0-5.5,4.5-10,10-10h55c5.5,0,10,4.5,10,10l0,0
		C331,368.5,326.5,373,321,373z"/>
</g>
<g>
	<path fill="#FFFFFF" d="M856,319c0,6.6-5.4,12-12,12c-6.6,0-12-5.4-12-12c0-6.6,5.4-12,12-12C850.6,307,856,312.4,856,319"/>
	<g>
		<path fill="#BD2026" d="M844,307.9c-6.1,0-11.1,5-11.1,11.1c0,4.7,2.9,8.7,7.1,10.3c-0.1-0.9-0.2-2.2,0-3.2
			c0.2-0.9,1.3-5.5,1.3-5.5s-0.3-0.7-0.3-1.6c0-1.5,0.9-2.7,2-2.7c0.9,0,1.4,0.7,1.4,1.6c0,1-0.6,2.4-0.9,3.7c-0.3,1.1,0.6,2,1.6,2
			c2,0,3.5-2.1,3.5-5.1c0-2.7-1.9-4.5-4.6-4.5c-3.2,0-5,2.4-5,4.8c0,1,0.4,2,0.8,2.5c0.1,0.1,0.1,0.2,0.1,0.3
			c-0.1,0.4-0.3,1.1-0.3,1.3c0,0.2-0.2,0.2-0.4,0.1c-1.4-0.6-2.3-2.7-2.3-4.3c0-3.5,2.5-6.7,7.3-6.7c3.8,0,6.8,2.7,6.8,6.4
			c0,3.8-2.4,6.9-5.8,6.9c-1.1,0-2.2-0.6-2.5-1.3c0,0-0.6,2.1-0.7,2.6c-0.3,1-0.9,2.2-1.4,2.9c1,0.3,2.1,0.5,3.3,0.5
			c6.1,0,11.1-5,11.1-11.1C855.1,312.9,850.1,307.9,844,307.9z"/>
	</g>
</g>
<path fill="#006A85" d="M375,331c-14.7,0-31.4-7.8-33.3-8.7c-5-2.4-7.1-8.4-4.7-13.3c2.4-5,8.4-7.1,13.3-4.7c4,1.9,16,6.7,24.6,6.7
	c13.9,0,17-4,17-9.4c0-5.5-4.2-7.8-21.3-11.8c-7.3-1.7-14.9-3.5-21.1-6.9c-11.2-6.1-13.5-15.3-13.5-21.8c0-17.4,15.4-31.1,35.1-31.1
	c16.3,0,29.3,8.5,30.7,9.4c4.6,3.1,5.8,9.3,2.7,13.9c-3.1,4.6-9.3,5.8-13.9,2.7c0,0-9.2-6-19.5-6c-7.3,0-15.1,3.2-15.1,10.1
	c0,3.4,2.7,6.4,19.2,10.3c14.6,3.4,36.8,8.6,36.8,31.3C412,312.5,407.2,331,375,331z"/>
<g>
	<path fill="#F6533A" d="M143,321.4V240c0-5.5,4.5-10,10-10h0c5.5,0,10,4.5,10,10v81.4c0,5.5-4.5,10-10,10h0
		C147.5,331.4,143,326.9,143,321.4z"/>
</g>
</svg>
